<svg width="681" height="681" xmlns="http://www.w3.org/2000/svg" xmlns:xlink="http://www.w3.org/1999/xlink" xml:space="preserve" overflow="hidden"><g transform="translate(-1694 -703)"><path d="M1946 825.5C1946 871.616 1922.27 909 1893 909 1863.73 909 1840 871.616 1840 825.5 1840 779.384 1863.73 742 1893 742 1922.27 742 1946 779.384 1946 825.5Z" fill="#4E95D9" fill-rule="evenodd"/><path d="M2228 825.5C2228 871.616 2204.27 909 2175 909 2145.73 909 2122 871.616 2122 825.5 2122 779.384 2145.73 742 2175 742 2204.27 742 2228 779.384 2228 825.5Z" fill="#4E95D9" fill-rule="evenodd"/><path d="M2140 1229 2140 1145C2140 1131.93 2136.47 1118.87 2129.4 1111.4 2115.27 1092.73 2096.42 1079.67 2077.58 1072.2 2064.62 1066.6 2049.31 1061 2034 1061 2019.87 1061 2004.56 1064.73 1990.42 1072.2 1971.58 1079.67 1953.91 1094.6 1938.6 1111.4 1931.53 1120.73 1928 1131.93 1928 1145L1928 1229 2140 1229Z" fill="#4E95D9" fill-rule="evenodd"/><path d="M2087 955.5C2087 1001.62 2063.27 1039 2034 1039 2004.73 1039 1981 1001.62 1981 955.5 1981 909.384 2004.73 872 2034 872 2063.27 872 2087 909.384 2087 955.5Z" fill="#4E95D9" fill-rule="evenodd"/><path d="M2271.34 981.4C2257.14 962.733 2238.19 949.667 2219.25 942.2 2206.22 936.6 2190.83 931 2175.44 931 2161.23 931 2145.83 934.733 2131.63 942.2 2124.52 945.933 2117.42 949.667 2110.31 955.267L2110.31 957.133C2110.31 988.866 2102.02 1018.73 2089 1039.27 2111.5 1050.47 2129.26 1065.4 2143.47 1082.2 2147.02 1087.8 2150.57 1091.53 2152.94 1099L2282 1099 2282 1015C2282 1001.93 2278.45 988.866 2271.34 981.4Z" fill="#4E95D9" fill-rule="evenodd"/><path d="M1924.82 1082.2 1924.82 1082.2C1941.31 1063.53 1960.15 1048.6 1979 1039.27 1966.04 1016.87 1957.8 988.866 1957.8 957.133 1957.8 955.267 1957.8 955.267 1957.8 953.4 1950.73 949.667 1943.66 944.067 1936.6 942.2 1923.64 936.6 1908.33 931 1893.01 931 1878.88 931 1863.56 934.733 1849.43 942.2 1830.58 951.533 1812.91 964.6 1797.6 981.4 1790.53 988.866 1787 1001.93 1787 1015L1787 1099 1914.21 1099C1917.75 1091.53 1920.1 1087.8 1924.82 1082.2Z" fill="#4E95D9" fill-rule="evenodd"/><text fill="#4E95D9" font-family="Aptos Display,Aptos Display_MSFontService,sans-serif" font-weight="700" font-size="69" transform="matrix(1 0 0 1 1806.48 1290)">Community </text><text fill="#4E95D9" font-family="Aptos Display,Aptos Display_MSFontService,sans-serif" font-weight="700" font-size="69" transform="matrix(1 0 0 1 1861.78 1348)">Support</text><rect x="1704.5" y="713.5" width="660" height="660" stroke="#FFFFFF" stroke-width="20.625" stroke-miterlimit="8" fill="none"/></g></svg>