<svg width="681" height="681" xmlns="http://www.w3.org/2000/svg" xmlns:xlink="http://www.w3.org/1999/xlink" xml:space="preserve" overflow="hidden"><g transform="translate(-1695 -644)"><path d="M1970 922.5C1970 952.599 1941.79 977 1907 977 1872.21 977 1844 952.599 1844 922.5 1844 892.4 1872.21 868 1907 868 1941.79 868 1970 892.4 1970 922.5Z" fill="#4E95D9" fill-rule="evenodd"/><path d="M2199.99 1186 2199.99 1131.5C2200.25 1122.87 2195.54 1114.7 2187.44 1109.7 2169.38 1097.42 2148.44 1088.74 2126.09 1084.27 2109.33 1079.89 2091.98 1077.45 2074.5 1077 2056.96 1077.05 2039.55 1079.5 2022.9 1084.27 2000.87 1089.5 1980.09 1098.12 1961.55 1109.7 1953.68 1114.87 1949.04 1122.93 1949 1131.5L1949 1186Z" fill="#4E95D9" fill-rule="evenodd"/><path d="M2137 1007.5C2137 1037.6 2109.02 1062 2074.5 1062 2039.98 1062 2012 1037.6 2012 1007.5 2012 977.4 2039.98 953 2074.5 953 2109.02 953 2137 977.4 2137 1007.5Z" fill="#4E95D9" fill-rule="evenodd"/><path d="M1944.66 1090.1 1944.66 1090.1C1964.3 1077.97 1986.01 1068.57 2009 1062.24 1993.1 1047.89 1984.09 1028.84 1983.82 1008.96L1983.82 1006.53C1975.65 1003.57 1967.24 1001.14 1958.65 999.267 1941.84 994.891 1924.44 992.448 1906.89 992 1889.31 992.047 1871.84 994.499 1855.14 999.267 1833.27 1005.02 1812.52 1013.59 1793.6 1024.7 1785.47 1029.7 1780.75 1037.87 1781.01 1046.5L1781.01 1101 1932.07 1101C1935.54 1096.79 1939.79 1093.1 1944.66 1090.1Z" fill="#4E95D9" fill-rule="evenodd"/><path d="M2261.45 700 1998.48 700C1990.44 700.067 1983.96 705.808 1984 712.844L1984 869.595C1983.85 876.654 1990.27 882.486 1998.34 882.621 1998.39 882.621 1998.44 882.622 1998.48 882.622L2040.26 882.622 2040.26 934 2097.98 882.622 2261.45 882.622C2269.51 882.555 2276 876.825 2276 869.778L2276 712.844C2276 705.798 2269.51 700.067 2261.45 700ZM2128.75 859.794C2120.21 859.794 2113.29 853.743 2113.29 846.279 2113.29 838.815 2120.21 832.766 2128.75 832.766 2137.21 832.767 2144.09 838.707 2144.2 846.098 2144.36 853.526 2137.6 859.658 2129.1 859.793 2128.98 859.794 2128.87 859.795 2128.75 859.794ZM2138.7 804.095 2138.7 823.27 2118.86 823.27 2118.86 787.415 2128.75 787.415C2146.01 787.415 2157.15 778.588 2157.15 765.014 2157.43 751.568 2145.18 740.475 2129.8 740.236 2129.45 740.231 2129.1 740.232 2128.75 740.238 2114.43 739.074 2101.74 748.281 2100.41 760.8 2100.26 762.202 2100.26 763.612 2100.41 765.014L2100.41 766.535 2080.57 766.535 2080.57 765.014C2079.07 743.032 2098.23 724.146 2123.37 722.831 2125.16 722.738 2126.96 722.736 2128.75 722.828 2155.09 722.557 2176.69 741.006 2177 764.034 2177 764.36 2177 764.687 2177 765.014 2177.67 784.726 2161.09 801.654 2138.7 804.095Z" fill="#4E95D9" fill-rule="evenodd"/><rect x="1705.5" y="654.5" width="660" height="649" stroke="#FFFFFF" stroke-width="20.625" stroke-miterlimit="8" fill="none"/><text fill="#4E95D9" font-family="Aptos Display,Aptos Display_MSFontService,sans-serif" font-weight="700" font-size="73" transform="matrix(1 0 0 1 1843.94 1253)">FAQ Pages</text></g></svg>