<svg width="330" height="330" xmlns="http://www.w3.org/2000/svg" xmlns:xlink="http://www.w3.org/1999/xlink" xml:space="preserve" overflow="hidden"><defs><clipPath id="clip0"><rect x="2534" y="393" width="330" height="330"/></clipPath></defs><g clip-path="url(#clip0)" transform="translate(-2534 -393)"><path d="M2864 440.5C2864 466.734 2849.9 488 2832.5 488 2815.1 488 2801 466.734 2801 440.5 2801 414.266 2815.1 393 2832.5 393 2849.9 393 2864 414.266 2864 440.5Z" fill="#4E95D9" fill-rule="evenodd"/><path d="M2766.33 447.573 2766.33 447.573C2709.41 423.779 2656.47 461.851 2629.8 482.076L2629.8 482.076C2617.86 490.999 2609.5 508.846 2609.5 530.261L2609.5 630.2 2543.02 677.195C2535.06 682.549 2531.88 696.826 2535.46 708.723 2538.25 717.051 2543.82 722.405 2549.79 722.405 2552.18 722.405 2554.57 721.81 2556.56 720.026L2632.19 666.487C2637.76 662.323 2641.34 653.995 2641.34 645.072L2641.34 558.22 2684.33 604.62 2655.27 687.308C2651.29 699.205 2654.08 713.482 2662.04 719.431 2664.43 721.216 2666.82 722.405 2669.6 722.405 2675.18 722.405 2680.75 717.646 2683.54 709.913L2719.36 608.784C2722.94 598.077 2720.95 584.989 2714.58 578.446L2682.74 544.538 2761.16 544.538 2761.16 699.205C2761.16 712.292 2768.32 723 2777.08 723 2785.84 723 2793 712.292 2793 699.205L2793 493.974C2792.6 470.774 2781.06 451.143 2766.33 447.573Z" fill="#4E95D9" fill-rule="evenodd"/></g></svg>