<svg width="681" height="681" xmlns="http://www.w3.org/2000/svg" xmlns:xlink="http://www.w3.org/1999/xlink" xml:space="preserve" overflow="hidden"><g transform="translate(-1630 -677)"><path d="M1723 732 1772 732 1772 1200 1723 1200Z" fill="#4E95D9" fill-rule="evenodd"/><path d="M2185.53 732 1804 732 1804 1200 2185.53 1200C2203.39 1200 2218 1188.62 2218 1174.7L2218 757.297C2218 743.384 2203.39 732 2185.53 732ZM1942.81 909.714C1942.81 883.151 1970.41 861.649 2004.51 861.649 2038.6 861.649 2066.2 883.151 2066.2 909.714 2066.2 936.276 2038.6 957.778 2004.51 957.778 1970.41 957.778 1942.81 936.908 1942.81 909.714ZM2128.71 1067.19 1880.31 1067.19 1880.31 1019.12C1880.31 1011.54 1885.18 1004.58 1892.48 999.519 1911.15 989.4 1931.45 981.178 1953.36 976.751 1970.41 972.957 1987.46 971.059 2004.51 970.427 2021.55 970.427 2039.41 972.324 2055.65 976.751 2077.56 981.178 2097.86 988.767 2116.53 999.519 2123.84 1003.95 2128.71 1011.54 2128.71 1019.12L2128.71 1067.19Z" fill="#4E95D9" fill-rule="evenodd"/><text fill="#4E95D9" font-family="Aptos Display,Aptos Display_MSFontService,sans-serif" font-weight="700" font-size="73" transform="matrix(1 0 0 1 1722.91 1290)">User’s Guide</text><rect x="1640.5" y="687.5" width="660" height="655" stroke="#FFFFFF" stroke-width="20.625" stroke-miterlimit="8" fill="none"/></g></svg>