<svg width="660" height="660" xmlns="http://www.w3.org/2000/svg" xmlns:xlink="http://www.w3.org/1999/xlink" xml:space="preserve" overflow="hidden"><defs><clipPath id="clip0"><rect x="1934" y="944" width="660" height="660"/></clipPath></defs><g clip-path="url(#clip0)" transform="translate(-1934 -944)"><path d="M2146 1005.5C2146 1039.47 2114.21 1067 2075 1067 2035.79 1067 2004 1039.47 2004 1005.5 2004 971.534 2035.79 944 2075 944 2114.21 944 2146 971.534 2146 1005.5Z" fill="#4E95D9" fill-rule="evenodd"/><path d="M2523 1005.5C2523 1039.47 2491.44 1067 2452.5 1067 2413.56 1067 2382 1039.47 2382 1005.5 2382 971.534 2413.56 944 2452.5 944 2491.44 944 2523 971.534 2523 1005.5Z" fill="#4E95D9" fill-rule="evenodd"/><path d="M2405 1303 2405 1241.5C2405 1231.93 2400.28 1222.37 2390.85 1216.9 2371.98 1203.23 2346.83 1193.67 2321.67 1188.2 2304.38 1184.1 2283.94 1180 2263.5 1180 2244.63 1180 2224.19 1182.73 2205.33 1188.2 2180.17 1193.67 2156.59 1204.6 2136.15 1216.9 2126.72 1223.73 2122 1231.93 2122 1241.5L2122 1303 2405 1303Z" fill="#4E95D9" fill-rule="evenodd"/><path d="M2334 1101.5C2334 1135.47 2302.44 1163 2263.5 1163 2224.56 1163 2193 1135.47 2193 1101.5 2193 1067.53 2224.56 1040 2263.5 1040 2302.44 1040 2334 1067.53 2334 1101.5Z" fill="#4E95D9" fill-rule="evenodd"/><path d="M2579.86 1120.9C2561.02 1107.23 2535.89 1097.67 2510.76 1092.2 2493.48 1088.1 2473.07 1084 2452.65 1084 2433.8 1084 2413.39 1086.73 2394.54 1092.2 2385.12 1094.93 2375.69 1097.67 2366.27 1101.77L2366.27 1103.13C2366.27 1126.37 2355.28 1148.23 2338 1163.27 2367.84 1171.47 2391.4 1182.4 2410.25 1194.7 2414.96 1198.8 2419.67 1201.53 2422.81 1207L2594 1207 2594 1145.5C2594 1135.93 2589.29 1126.37 2579.86 1120.9Z" fill="#4E95D9" fill-rule="evenodd"/><path d="M2117.75 1194.7 2117.75 1194.7C2139.74 1181.03 2164.87 1170.1 2190 1163.27 2172.72 1146.87 2161.73 1126.37 2161.73 1103.13 2161.73 1101.77 2161.73 1101.77 2161.73 1100.4 2152.31 1097.67 2142.88 1093.57 2133.46 1092.2 2116.18 1088.1 2095.77 1084 2075.35 1084 2056.5 1084 2036.09 1086.73 2017.24 1092.2 1992.11 1099.03 1968.55 1108.6 1948.13 1120.9 1938.71 1126.37 1934 1135.93 1934 1145.5L1934 1207 2103.62 1207C2108.33 1201.53 2111.47 1198.8 2117.75 1194.7Z" fill="#4E95D9" fill-rule="evenodd"/><text fill="#4E95D9" font-family="Aptos Display,Aptos Display_MSFontService,sans-serif" font-weight="700" font-size="73" transform="matrix(1 0 0 1 2080.13 1407)">Community </text><text fill="#4E95D9" font-family="Aptos Display,Aptos Display_MSFontService,sans-serif" font-weight="700" font-size="73" transform="matrix(1 0 0 1 2139.43 1487)">Support</text></g></svg>