<svg width="660" height="660" xmlns="http://www.w3.org/2000/svg" xmlns:xlink="http://www.w3.org/1999/xlink" xml:space="preserve" overflow="hidden"><g transform="translate(-1862 -826)"><g><g><g><path d="M178.75 166.833C178.75 193.757 156.924 215.583 130 215.583 103.076 215.583 81.25 193.757 81.25 166.833 81.25 139.909 103.076 118.083 130 118.083 156.924 118.083 178.75 139.909 178.75 166.833Z" fill="#4E95D9" transform="matrix(1.13654 0 0 1 1897 826)"/><path d="M438.75 166.833C438.75 193.757 416.924 215.583 390 215.583 363.076 215.583 341.25 193.757 341.25 166.833 341.25 139.909 363.076 118.083 390 118.083 416.924 118.083 438.75 139.909 438.75 166.833Z" fill="#4E95D9" transform="matrix(1.13654 0 0 1 1897 826)"/><path d="M357.5 401.917 357.5 353.167C357.5 345.583 354.25 338 347.75 333.667 334.75 322.833 317.417 315.25 300.083 310.917 288.167 307.667 274.083 304.417 260 304.417 247 304.417 232.917 306.583 219.917 310.917 202.583 315.25 186.333 323.917 172.25 333.667 165.75 339.083 162.5 345.583 162.5 353.167L162.5 401.917 357.5 401.917Z" fill="#4E95D9" transform="matrix(1.13654 0 0 1 1897 826)"/><path d="M308.75 242.667C308.75 269.591 286.924 291.417 260 291.417 233.076 291.417 211.25 269.591 211.25 242.667 211.25 215.743 233.076 193.917 260 193.917 286.924 193.917 308.75 215.743 308.75 242.667Z" fill="#4E95D9" transform="matrix(1.13654 0 0 1 1897 826)"/><path d="M477.75 257.833C464.75 247 447.417 239.417 430.083 235.083 418.167 231.833 404.083 228.583 390 228.583 377 228.583 362.917 230.75 349.917 235.083 343.417 237.25 336.917 239.417 330.417 242.667L330.417 243.75C330.417 262.167 322.833 279.5 310.917 291.417 331.5 297.917 347.75 306.583 360.75 316.333 364 319.583 367.25 321.75 369.417 326.083L487.5 326.083 487.5 277.333C487.5 269.75 484.25 262.167 477.75 257.833Z" fill="#4E95D9" transform="matrix(1.13654 0 0 1 1897 826)"/><path d="M159.25 316.333 159.25 316.333C174.417 305.5 191.75 296.833 209.083 291.417 197.167 278.417 189.583 262.167 189.583 243.75 189.583 242.667 189.583 242.667 189.583 241.583 183.083 239.417 176.583 236.167 170.083 235.083 158.167 231.833 144.083 228.583 130 228.583 117 228.583 102.917 230.75 89.9167 235.083 72.5833 240.5 56.3333 248.083 42.25 257.833 35.75 262.167 32.5 269.75 32.5 277.333L32.5 326.083 149.5 326.083C152.75 321.75 154.917 319.583 159.25 316.333Z" fill="#4E95D9" transform="matrix(1.13654 0 0 1 1897 826)"/></g></g></g><text fill="#4E95D9" font-family="Aptos Display,Aptos Display_MSFontService,sans-serif" font-weight="700" font-size="83" transform="matrix(1 0 0 1 1986.12 1324)">Community </text><text fill="#4E95D9" font-family="Aptos Display,Aptos Display_MSFontService,sans-serif" font-weight="700" font-size="83" transform="matrix(1 0 0 1 2052.28 1413)">Support</text></g></svg>