<svg width="495" height="495" xmlns="http://www.w3.org/2000/svg" xmlns:xlink="http://www.w3.org/1999/xlink" xml:space="preserve" overflow="hidden"><defs><clipPath id="clip0"><rect x="3063" y="595" width="495" height="495"/></clipPath></defs><g clip-path="url(#clip0)" transform="translate(-3063 -595)"><path d="M3222 680C3222 726.944 3198.27 765 3169 765 3139.73 765 3116 726.944 3116 680 3116 633.056 3139.73 595 3169 595 3198.27 595 3222 633.056 3222 680Z" fill="#4E95D9" fill-rule="evenodd"/><path d="M3505 680C3505 726.944 3481.27 765 3452 765 3422.73 765 3399 726.944 3399 680 3399 633.056 3422.73 595 3452 595 3481.27 595 3505 633.056 3505 680Z" fill="#4E95D9" fill-rule="evenodd"/><path d="M3417 1090 3417 1005C3417 991.778 3413.47 978.555 3406.4 971 3392.27 952.111 3373.42 938.889 3354.58 931.333 3341.62 925.667 3326.31 920 3311 920 3296.87 920 3281.56 923.778 3267.42 931.333 3248.58 938.889 3230.91 954 3215.6 971 3208.53 980.445 3205 991.778 3205 1005L3205 1090 3417 1090Z" fill="#4E95D9" fill-rule="evenodd"/><path d="M3364 812C3364 858.944 3340.27 897 3311 897 3281.73 897 3258 858.944 3258 812 3258 765.056 3281.73 727 3311 727 3340.27 727 3364 765.056 3364 812Z" fill="#4E95D9" fill-rule="evenodd"/><path d="M3547.4 838C3533.26 819.111 3514.42 805.889 3495.57 798.333 3482.61 792.666 3467.3 787 3451.99 787 3437.85 787 3422.54 790.778 3408.41 798.333 3401.34 802.111 3394.27 805.889 3387.2 811.555L3387.2 813.444C3387.2 845.555 3378.96 875.778 3366 896.555 3388.38 907.889 3406.05 923 3420.18 940 3423.72 945.667 3427.25 949.445 3429.61 957L3558 957 3558 872C3558 858.778 3554.47 845.555 3547.4 838Z" fill="#4E95D9" fill-rule="evenodd"/><path d="M3200.82 940 3200.82 940C3217.31 921.111 3236.15 906 3255 896.555 3242.04 873.889 3233.8 845.555 3233.8 813.444 3233.8 811.555 3233.8 811.555 3233.8 809.666 3226.73 805.889 3219.66 800.222 3212.6 798.333 3199.64 792.666 3184.33 787 3169.01 787 3154.88 787 3139.56 790.778 3125.43 798.333 3106.58 807.778 3088.91 821 3073.6 838 3066.53 845.555 3063 858.778 3063 872L3063 957 3190.22 957C3193.75 949.445 3196.1 945.667 3200.82 940Z" fill="#4E95D9" fill-rule="evenodd"/></g></svg>