<svg width="660" height="660" xmlns="http://www.w3.org/2000/svg" xmlns:xlink="http://www.w3.org/1999/xlink" xml:space="preserve" overflow="hidden"><g transform="translate(-1870 -789)"><g><g><g><path d="M200.792 226.717C200.792 251.984 180.309 272.467 155.042 272.467 129.775 272.467 109.292 251.984 109.292 226.717 109.292 201.45 129.775 180.967 155.042 180.967 180.309 180.967 200.792 201.45 200.792 226.717Z" fill="#4E95D9" transform="matrix(1.22131 0 0 1 1870 789)"/><path d="M368.542 447.333 368.542 401.583C368.729 394.34 365.299 387.479 359.392 383.283 346.224 372.977 330.953 365.689 314.658 361.933 302.441 358.261 289.794 356.21 277.042 355.833 264.26 355.873 251.565 357.931 239.425 361.933 223.362 366.331 208.213 373.561 194.692 383.283 188.957 387.624 185.573 394.391 185.542 401.583L185.542 447.333Z" fill="#4E95D9" transform="matrix(1.22131 0 0 1 1870 789)"/><path d="M322.792 297.883C322.792 323.15 302.309 343.633 277.042 343.633 251.775 343.633 231.292 323.15 231.292 297.883 231.292 272.616 251.775 252.133 277.042 252.133 302.309 252.133 322.792 272.616 322.792 297.883Z" fill="#4E95D9" transform="matrix(1.22131 0 0 1 1870 789)"/><path d="M182.492 367.017 182.492 367.017C196.765 356.83 212.545 348.94 229.258 343.633 217.698 331.587 211.156 315.594 210.958 298.9L210.958 296.867C205.02 294.378 198.902 292.34 192.658 290.767 180.441 287.094 167.794 285.043 155.042 284.667 142.26 284.706 129.565 286.765 117.425 290.767 101.525 295.593 86.4441 302.791 72.6917 312.117 66.7849 316.313 63.3541 323.174 63.5417 330.417L63.5417 376.167 173.342 376.167C175.862 372.63 178.955 369.537 182.492 367.017Z" fill="#4E95D9" transform="matrix(1.22131 0 0 1 1870 789)"/><path d="M413.529 40.6667 221.532 40.6667C215.656 40.7226 210.93 45.5165 210.958 51.3925L210.958 182.288C210.846 188.183 215.533 193.053 221.428 193.165 221.462 193.166 221.497 193.166 221.532 193.167L252.032 193.167 252.032 236.07 294.173 193.167 413.529 193.167C419.413 193.111 424.153 188.325 424.153 182.441L424.153 51.3925C424.154 45.5083 419.413 40.7224 413.529 40.6667ZM316.641 174.104C310.408 174.104 305.356 169.051 305.357 162.818 305.357 156.586 310.41 151.534 316.643 151.534 322.816 151.535 327.843 156.495 327.926 162.667 328.038 168.87 323.1 173.99 316.897 174.103 316.812 174.104 316.726 174.105 316.641 174.104ZM323.91 127.592 323.91 143.604 309.423 143.604 309.423 113.663 316.641 113.663C329.248 113.663 337.381 106.293 337.381 94.9567 337.58 83.7286 328.639 74.4653 317.411 74.2665 317.154 74.2619 316.898 74.2624 316.641 74.2675 306.186 73.2961 296.923 80.9836 295.952 91.4385 295.843 92.6087 295.843 93.7865 295.952 94.9567L295.952 96.2275 281.464 96.2275 281.464 94.9567C280.366 76.6008 294.357 60.8302 312.713 59.7322 314.021 59.6539 315.332 59.6529 316.641 59.7292 335.871 59.5035 351.643 74.909 351.868 94.1388 351.871 94.4113 351.871 94.6842 351.868 94.9567 352.362 111.418 340.253 125.554 323.91 127.592Z" fill="#4E95D9" transform="matrix(1.22131 0 0 1 1870 789)"/></g></g></g><text fill="#4E95D9" font-family="Aptos Display,Aptos Display_MSFontService,sans-serif" font-weight="700" font-size="83" transform="matrix(1 0 0 1 1966.52 1340)">FAQ Pages</text></g></svg>