<svg width="495" height="495" xmlns="http://www.w3.org/2000/svg" xmlns:xlink="http://www.w3.org/1999/xlink" xml:space="preserve" overflow="hidden"><defs><clipPath id="clip0"><rect x="2923" y="782" width="495" height="495"/></clipPath></defs><g clip-path="url(#clip0)" transform="translate(-2923 -782)"><path d="M3111 1009C3111 1039.93 3083.02 1065 3048.5 1065 3013.98 1065 2986 1039.93 2986 1009 2986 978.072 3013.98 953 3048.5 953 3083.02 953 3111 978.072 3111 1009Z" fill="#4E95D9" fill-rule="evenodd"/><path d="M3341.99 1277 3341.99 1221.5C3342.25 1212.71 3337.52 1204.39 3329.39 1199.3 3311.26 1186.8 3290.23 1177.96 3267.79 1173.4 3250.97 1168.94 3233.55 1166.46 3216 1166 3198.39 1166.05 3180.91 1168.55 3164.2 1173.4 3142.08 1178.73 3121.22 1187.51 3102.6 1199.3 3094.7 1204.57 3090.04 1212.77 3090 1221.5L3090 1277Z" fill="#4E95D9" fill-rule="evenodd"/><path d="M3279 1095.5C3279 1126.15 3250.79 1151 3216 1151 3181.21 1151 3153 1126.15 3153 1095.5 3153 1064.85 3181.21 1040 3216 1040 3250.79 1040 3279 1064.85 3279 1095.5Z" fill="#4E95D9" fill-rule="evenodd"/><path d="M3085.94 1179.8 3085.94 1179.8C3105.49 1167.33 3127.11 1157.67 3150 1151.18 3134.17 1136.43 3125.2 1116.86 3124.93 1096.42L3124.93 1093.93C3116.8 1090.89 3108.42 1088.39 3099.87 1086.47 3083.13 1081.97 3065.81 1079.46 3048.34 1079 3030.83 1079.05 3013.44 1081.57 2996.82 1086.47 2975.04 1092.37 2954.38 1101.18 2935.54 1112.6 2927.45 1117.74 2922.75 1126.13 2923.01 1135L2923.01 1191 3073.41 1191C3076.86 1186.67 3081.1 1182.89 3085.94 1179.8Z" fill="#4E95D9" fill-rule="evenodd"/><path d="M3403.4 782 3139.53 782C3131.46 782.068 3124.96 787.907 3125 795.064L3125 954.494C3124.85 961.674 3131.29 967.605 3139.39 967.742 3139.44 967.743 3139.49 967.744 3139.53 967.744L3181.45 967.744 3181.45 1020 3239.37 967.744 3403.4 967.744C3411.49 967.676 3418 961.847 3418 954.68L3418 795.064C3418 787.897 3411.49 782.068 3403.4 782ZM3270.24 944.526C3261.68 944.525 3254.74 938.371 3254.74 930.78 3254.74 923.188 3261.68 917.035 3270.25 917.036 3278.73 917.036 3285.64 923.078 3285.75 930.595 3285.91 938.151 3279.12 944.387 3270.6 944.524 3270.48 944.526 3270.36 944.527 3270.24 944.526ZM3280.23 887.874 3280.23 907.377 3260.32 907.377 3260.32 870.909 3270.24 870.909C3287.57 870.909 3298.75 861.932 3298.75 848.125 3299.02 834.449 3286.73 823.167 3271.3 822.924 3270.95 822.919 3270.6 822.919 3270.24 822.926 3255.88 821.743 3243.15 831.106 3241.81 843.84 3241.66 845.265 3241.66 846.7 3241.81 848.125L3241.81 849.673 3221.9 849.673 3221.9 848.125C3220.39 825.767 3239.62 806.559 3264.85 805.222 3266.64 805.127 3268.45 805.125 3270.24 805.218 3296.67 804.943 3318.35 823.707 3318.66 847.129 3318.66 847.46 3318.66 847.793 3318.66 848.125 3319.34 868.175 3302.69 885.392 3280.23 887.874Z" fill="#4E95D9" fill-rule="evenodd"/></g></svg>