<svg width="660" height="666" xmlns="http://www.w3.org/2000/svg" xmlns:xlink="http://www.w3.org/1999/xlink" xml:space="preserve" overflow="hidden"><defs><clipPath id="clip0"><rect x="1948" y="830" width="660" height="666"/></clipPath></defs><g clip-path="url(#clip0)" transform="translate(-1948 -830)"><path d="M2199 1052.5C2199 1082.6 2161.39 1107 2115 1107 2068.61 1107 2031 1082.6 2031 1052.5 2031 1022.4 2068.61 998 2115 998 2161.39 998 2199 1022.4 2199 1052.5Z" fill="#4E95D9" fill-rule="evenodd"/><path d="M2505.99 1316 2505.99 1261.5C2506.33 1252.87 2500.05 1244.7 2489.24 1239.7 2465.13 1227.42 2437.18 1218.74 2407.35 1214.27 2384.99 1209.89 2361.84 1207.45 2338.49 1207 2315.1 1207.05 2291.86 1209.5 2269.64 1214.27 2240.23 1219.5 2212.5 1228.12 2187.75 1239.7 2177.25 1244.87 2171.06 1252.93 2171 1261.5L2171 1316Z" fill="#4E95D9" fill-rule="evenodd"/><path d="M2422 1137.5C2422 1167.6 2384.62 1192 2338.5 1192 2292.38 1192 2255 1167.6 2255 1137.5 2255 1107.4 2292.38 1083 2338.5 1083 2384.62 1083 2422 1107.4 2422 1137.5Z" fill="#4E95D9" fill-rule="evenodd"/><path d="M2165.49 1220.1 2165.49 1220.1C2191.59 1207.97 2220.44 1198.57 2251 1192.24 2229.86 1177.89 2217.9 1158.84 2217.54 1138.96L2217.54 1136.53C2206.68 1133.57 2195.5 1131.14 2184.08 1129.27 2161.75 1124.89 2138.62 1122.45 2115.31 1122 2091.94 1122.05 2068.73 1124.5 2046.53 1129.27 2017.46 1135.02 1989.89 1143.59 1964.74 1154.7 1953.94 1159.7 1947.67 1167.87 1948.01 1176.5L1948.01 1231 2148.77 1231C2153.37 1226.79 2159.03 1223.1 2165.49 1220.1Z" fill="#4E95D9" fill-rule="evenodd"/><path d="M2588.52 830 2236.39 830C2225.62 830.067 2216.95 835.808 2217 842.845L2217 999.595C2216.8 1006.65 2225.39 1012.49 2236.2 1012.62 2236.27 1012.62 2236.33 1012.62 2236.39 1012.62L2292.33 1012.62 2292.33 1064 2369.62 1012.62 2588.52 1012.62C2599.31 1012.56 2608 1006.82 2608 999.778L2608 842.845C2608 835.798 2599.31 830.067 2588.52 830ZM2410.82 989.794C2399.39 989.794 2390.13 983.743 2390.13 976.279 2390.13 968.816 2399.4 962.766 2410.83 962.766 2422.15 962.767 2431.37 968.707 2431.52 976.098 2431.73 983.526 2422.67 989.658 2411.29 989.793 2411.14 989.794 2410.98 989.795 2410.82 989.794ZM2424.16 934.095 2424.16 953.27 2397.59 953.27 2397.59 917.415 2410.82 917.415C2433.94 917.415 2448.86 908.589 2448.86 895.014 2449.23 881.568 2432.83 870.475 2412.24 870.237 2411.77 870.231 2411.29 870.232 2410.82 870.238 2391.65 869.075 2374.66 878.281 2372.88 890.801 2372.68 892.202 2372.68 893.612 2372.88 895.014L2372.88 896.535 2346.31 896.535 2346.31 895.014C2344.3 873.032 2369.95 854.147 2403.62 852.831 2406.02 852.738 2408.42 852.737 2410.82 852.828 2446.09 852.558 2475.02 871.006 2475.43 894.034 2475.44 894.36 2475.44 894.687 2475.43 895.014 2476.34 914.727 2454.13 931.654 2424.16 934.095Z" fill="#4E95D9" fill-rule="evenodd"/><text fill="#4E95D9" font-family="Aptos Display,Aptos Display_MSFontService,sans-serif" font-weight="700" font-size="73" transform="matrix(1 0 0 1 2089.88 1432)">FAQ Pages</text></g></svg>