<svg width="495" height="495" xmlns="http://www.w3.org/2000/svg" xmlns:xlink="http://www.w3.org/1999/xlink" xml:space="preserve" overflow="hidden"><defs><clipPath id="clip0"><rect x="2933" y="554" width="495" height="495"/></clipPath></defs><g clip-path="url(#clip0)" transform="translate(-2933 -554)"><path d="M3428 625.5C3428 664.988 3406.51 697 3380 697 3353.49 697 3332 664.988 3332 625.5 3332 586.012 3353.49 554 3380 554 3406.51 554 3428 586.012 3428 625.5Z" fill="#4E95D9" fill-rule="evenodd"/><path d="M3281.05 636.347 3281.05 636.347C3195.78 600.697 3116.47 657.737 3076.51 688.04L3076.51 688.04C3058.62 701.409 3046.1 728.147 3046.1 760.232L3046.1 909.964 2946.52 980.373C2934.59 988.395 2929.82 1009.79 2935.19 1027.61 2939.36 1040.09 2947.71 1048.11 2956.66 1048.11 2960.23 1048.11 2963.81 1047.22 2966.79 1044.54L3080.09 964.331C3088.44 958.092 3093.81 945.614 3093.81 932.245L3093.81 802.121 3158.21 871.64 3114.68 995.525C3108.71 1013.35 3112.89 1034.74 3124.82 1043.65 3128.39 1046.33 3131.97 1048.11 3136.15 1048.11 3144.49 1048.11 3152.84 1040.98 3157.02 1029.39L3210.68 877.878C3216.05 861.836 3213.07 842.228 3203.53 832.424L3155.82 781.622 3273.3 781.622 3273.3 1013.35C3273.3 1032.96 3284.03 1049 3297.15 1049 3310.27 1049 3321 1032.96 3321 1013.35L3321 705.865C3320.4 671.106 3303.11 641.694 3281.05 636.347Z" fill="#4E95D9" fill-rule="evenodd"/></g></svg>