<svg width="660" height="660" xmlns="http://www.w3.org/2000/svg" xmlns:xlink="http://www.w3.org/1999/xlink" xml:space="preserve" overflow="hidden"><g transform="translate(-2879 -554)"><text fill="#4E95D9" font-family="Aptos Display,Aptos Display_MSFontService,sans-serif" font-weight="700" font-size="73" transform="matrix(1 0 0 1 2938.42 1115)">Getting Started</text><path d="M3539 619C3539 654.899 3513.03 684 3481 684 3448.97 684 3423 654.899 3423 619 3423 583.102 3448.97 554 3481 554 3513.03 554 3539 583.102 3539 619Z" fill="#4E95D9" fill-rule="evenodd"/><path d="M3360.71 628.33 3360.71 628.33C3257.63 595.875 3161.77 647.803 3113.47 675.39L3113.47 675.39C3091.85 687.561 3076.71 711.903 3076.71 741.112L3076.71 877.425 2956.34 941.524C2941.93 948.826 2936.16 968.3 2942.65 984.527 2947.69 995.887 2957.78 1003.19 2968.6 1003.19 2972.92 1003.19 2977.24 1002.38 2980.85 999.943L3117.8 926.919C3127.89 921.239 3134.38 909.88 3134.38 897.709L3134.38 779.247 3212.22 842.535 3159.61 955.318C3152.4 971.545 3157.44 991.018 3171.86 999.132 3176.18 1001.57 3180.51 1003.19 3185.55 1003.19 3195.65 1003.19 3205.74 996.698 3210.78 986.15L3275.65 848.215C3282.14 833.61 3278.54 815.759 3267 806.834L3209.34 760.586 3351.34 760.586 3351.34 971.545C3351.34 989.395 3364.31 1004 3380.17 1004 3396.03 1004 3409 989.395 3409 971.545L3409 691.618C3408.28 659.974 3387.38 633.198 3360.71 628.33Z" fill="#4E95D9" fill-rule="evenodd"/></g></svg>