<svg width="660" height="671" xmlns="http://www.w3.org/2000/svg" xmlns:xlink="http://www.w3.org/1999/xlink" xml:space="preserve" overflow="hidden"><g transform="translate(-1810 -836)"><text fill="#4E95D9" font-family="Aptos Display,Aptos Display_MSFontService,sans-serif" font-weight="700" font-size="83" transform="matrix(1 0 0 1 1862.68 1434)">Getting Started</text><g><g><g><path d="M512.76 162.135C512.76 187.448 492.24 207.969 466.927 207.969 441.614 207.969 421.094 187.448 421.094 162.135 421.094 136.822 441.614 116.302 466.927 116.302 492.24 116.302 512.76 136.822 512.76 162.135Z" fill="#4E95D9" transform="matrix(1.2 0 0 1 1810 836)"/><path d="M371.823 169.01 371.823 169.01C289.896 146.094 213.698 182.76 175.312 202.24L175.312 202.24C158.125 210.833 146.094 228.021 146.094 248.646L146.094 344.896 50.4167 390.156C38.9583 395.312 34.375 409.062 39.5312 420.521 43.5417 428.542 51.5625 433.698 60.1562 433.698 63.5938 433.698 67.0312 433.125 69.8958 431.406L178.75 379.844C186.771 375.833 191.927 367.812 191.927 359.219L191.927 275.573 253.802 320.26 211.979 399.896C206.25 411.354 210.26 425.104 221.719 430.833 225.156 432.552 228.594 433.698 232.604 433.698 240.625 433.698 248.646 429.115 252.656 421.667L304.219 324.271C309.375 313.958 306.51 301.354 297.344 295.052L251.51 262.396 364.375 262.396 364.375 411.354C364.375 423.958 374.688 434.271 387.292 434.271 399.896 434.271 410.208 423.958 410.208 411.354L410.208 213.698C409.635 191.354 393.021 172.448 371.823 169.01Z" fill="#4E95D9" transform="matrix(1.2 0 0 1 1810 836)"/></g></g></g></g></svg>