<svg width="681" height="689" xmlns="http://www.w3.org/2000/svg" xmlns:xlink="http://www.w3.org/1999/xlink" xml:space="preserve" overflow="hidden"><g transform="translate(-1655 -709)"><path d="M2294 803.5C2294 842.988 2268.26 875 2236.5 875 2204.74 875 2179 842.988 2179 803.5 2179 764.011 2204.74 732 2236.5 732 2268.26 732 2294 764.011 2294 803.5Z" fill="#4E95D9" fill-rule="evenodd"/><path d="M2116.71 814.347 2116.71 814.347C2013.63 778.697 1917.77 835.737 1869.47 866.04L1869.47 866.04C1847.85 879.409 1832.71 906.147 1832.71 938.232L1832.71 1087.96 1712.34 1158.37C1697.93 1166.39 1692.16 1187.78 1698.65 1205.61 1703.69 1218.09 1713.78 1226.11 1724.6 1226.11 1728.92 1226.11 1733.24 1225.22 1736.85 1222.54L1873.8 1142.33C1883.89 1136.09 1890.38 1123.61 1890.38 1110.25L1890.38 980.121 1968.22 1049.64 1915.61 1173.52C1908.4 1191.35 1913.44 1212.74 1927.86 1221.65 1932.18 1224.33 1936.51 1226.11 1941.55 1226.11 1951.65 1226.11 1961.74 1218.98 1966.78 1207.39L2031.65 1055.88C2038.14 1039.84 2034.54 1020.23 2023 1010.42L1965.34 959.622 2107.34 959.622 2107.34 1191.35C2107.34 1210.96 2120.31 1227 2136.17 1227 2152.03 1227 2165 1210.96 2165 1191.35L2165 883.865C2164.28 849.106 2143.38 819.694 2116.71 814.347Z" fill="#4E95D9" fill-rule="evenodd"/><rect x="1665.5" y="719.5" width="660" height="660" stroke="#FFFFFF" stroke-width="20.625" stroke-miterlimit="8" fill="none"/><text fill="#4E95D9" font-family="Aptos Display,Aptos Display_MSFontService,sans-serif" font-weight="700" font-size="69" transform="matrix(1 0 0 1 1836.42 1279)">Getting </text><text fill="#4E95D9" font-family="Aptos Display,Aptos Display_MSFontService,sans-serif" font-weight="700" font-size="69" transform="matrix(1 0 0 1 1835.32 1337)">Started</text></g></svg>