<svg width="660" height="660" xmlns="http://www.w3.org/2000/svg" xmlns:xlink="http://www.w3.org/1999/xlink" xml:space="preserve" overflow="hidden"><g transform="translate(-1832 -678)"><g><g><g><path d="M146.9 242.479C129.008 249.542 112.529 258.958 97.4625 270.729 87.1042 279.204 80.5125 291.917 80.0417 305.571L72.0375 375.254C70.625 385.613 75.3333 395.971 83.8083 401.621 92.2833 407.271 101.229 411.508 110.646 415.275L114.883 415.275 114.883 396.913C107.821 394.087 100.758 390.321 94.1667 386.083 91.3417 384.2 89.9292 380.904 90.4 377.608L98.875 306.983 98.875 306.042C99.3458 297.567 103.113 290.033 109.704 284.854 122.417 274.025 140.779 264.138 166.204 254.721 180.329 263.196 201.988 268.375 226 268.375 250.012 268.375 271.671 263.196 285.796 254.721 311.692 264.138 329.583 274.025 342.296 284.854 348.888 290.033 352.654 298.038 353.125 306.042L361.6 377.138C362.071 380.433 360.658 383.729 357.833 385.613L357.833 385.613C351.242 389.85 344.65 393.617 337.117 396.442L337.117 414.804 341.354 414.804C350.771 411.508 359.717 406.8 368.192 401.15L368.192 401.15C376.667 395.029 381.375 385.142 379.962 374.783L371.958 305.571C371.488 291.917 364.896 279.204 354.538 270.729 339.471 258.958 322.992 249.071 305.1 242.479 305.1 218.467 306.042 152.55 306.042 125.713 306.042 118.179 305.1 110.646 303.217 103.113 297.096 80.5125 281.558 61.6792 260.842 50.85 258.958 49.9083 256.133 49.9083 254.721 51.3208L250.483 54.6167 245.775 48.025C244.363 45.6708 242.008 44.2583 239.654 43.7875 234.946 42.8458 230.708 42.375 226 42.375 207.167 42.375 188.333 49.4375 174.208 61.6792 156.317 77.6875 146.429 100.287 146.9 124.3L146.9 242.479ZM170.442 165.733 173.738 127.125 277.792 127.125 281.088 165.733C275.438 196.338 246.246 216.583 215.171 210.933 192.571 206.696 174.679 188.804 170.442 165.733ZM189.275 244.363C194.454 240.125 197.75 233.063 197.75 226L197.75 225.058C215.642 232.592 236.358 232.592 254.25 225.058L254.25 226C254.25 233.063 257.546 239.654 262.725 244.363 250.954 248.129 238.242 249.542 226 249.542 213.758 249.542 201.046 248.129 189.275 244.363Z" fill="#4E95D9" transform="matrix(1.46018 0 0 1 1832 678)"/><path d="M327.7 307.454C327.7 300.863 322.521 295.683 315.929 295.683L315.929 295.683 136.542 295.683C129.95 295.683 124.771 300.863 124.771 307.454L124.771 307.454 124.771 424.692 88.9875 424.692 88.9875 430.812C88.9875 437.404 94.1667 442.583 100.758 442.583L351.712 442.583C358.304 442.583 363.483 437.404 363.483 430.812L363.483 424.692 327.7 424.692 327.7 307.454ZM201.517 385.142 194.925 391.733 168.558 365.367 194.925 339 201.517 345.592 181.742 365.367 201.517 385.142ZM219.408 395.029 210.933 391.263 233.063 338.058 241.538 341.825 219.408 395.029ZM257.075 392.204 250.483 385.613 270.258 365.837 250.483 346.062 257.075 339.471 283.442 365.837 257.075 392.204Z" fill="#4E95D9" transform="matrix(1.46018 0 0 1 1832 678)"/></g></g></g><text fill="#4E95D9" font-family="Aptos Display,Aptos Display_MSFontService,sans-serif" font-weight="700" font-size="83" transform="matrix(1 0 0 1 1883.03 1238)">Release Notes</text></g></svg>