<svg width="660" height="660" xmlns="http://www.w3.org/2000/svg" xmlns:xlink="http://www.w3.org/1999/xlink" xml:space="preserve" overflow="hidden"><defs><clipPath id="clip0"><rect x="1861" y="724" width="660" height="660"/></clipPath></defs><g clip-path="url(#clip0)" transform="translate(-1861 -724)"><path d="M2068.92 949.915C2041.31 957.889 2015.88 968.52 1992.62 981.809 1976.64 991.378 1966.46 1005.73 1965.74 1021.15L1953.38 1099.82C1951.2 1111.51 1958.47 1123.21 1971.55 1129.58 1984.63 1135.96 1998.44 1140.75 2012.97 1145L2019.51 1145 2019.51 1124.27C2008.61 1121.08 1997.71 1116.83 1987.54 1112.04 1983.18 1109.92 1981 1106.2 1981.72 1102.47L1994.8 1022.74 1994.8 1021.68C1995.53 1012.11 2001.34 1003.6 2011.52 997.756 2031.14 985.53 2059.47 974.367 2098.71 963.736 2120.51 973.304 2153.94 979.152 2191 979.152 2228.06 979.152 2261.49 973.304 2283.29 963.736 2323.25 974.367 2350.86 985.53 2370.48 997.756 2380.66 1003.6 2386.47 1012.64 2387.2 1021.68L2400.28 1101.94C2401 1105.66 2398.82 1109.39 2394.46 1111.51L2394.46 1111.51C2384.29 1116.3 2374.12 1120.55 2362.49 1123.74L2362.49 1144.47 2369.03 1144.47C2383.56 1140.75 2397.37 1135.43 2410.45 1129.05L2410.45 1129.05C2423.53 1122.14 2430.8 1110.98 2428.62 1099.29L2416.26 1021.15C2415.54 1005.73 2405.36 991.378 2389.38 981.809 2366.12 968.52 2340.69 957.357 2313.08 949.915 2313.08 922.806 2314.53 848.386 2314.53 818.087 2314.53 809.582 2313.08 801.077 2310.17 792.572 2300.73 767.057 2276.75 745.794 2244.77 733.568 2241.87 732.505 2237.51 732.505 2235.33 734.1L2228.79 737.821 2221.52 730.379C2219.34 727.721 2215.71 726.126 2212.07 725.595 2204.81 724.532 2198.27 724 2191 724 2161.93 724 2132.87 731.973 2111.07 745.794 2083.45 763.867 2068.2 789.383 2068.92 816.492L2068.92 949.915ZM2105.25 863.27 2110.34 819.682 2270.93 819.682 2276.02 863.27C2267.3 897.822 2222.25 920.679 2174.29 914.301 2139.41 909.517 2111.79 889.317 2105.25 863.27ZM2134.32 952.042C2142.31 947.258 2147.4 939.284 2147.4 931.311L2147.4 930.247C2175.01 938.753 2206.99 938.753 2234.6 930.247L2234.6 931.311C2234.6 939.284 2239.69 946.726 2247.68 952.042 2229.51 956.294 2209.89 957.889 2191 957.889 2172.11 957.889 2152.49 956.294 2134.32 952.042Z" fill="#4E95D9" fill-rule="evenodd"/><path d="M2347.73 1023.3C2347.73 1015.85 2339.73 1010 2329.55 1010L2329.55 1010 2052.45 1010C2042.27 1010 2034.27 1015.85 2034.27 1023.3L2034.27 1023.3 2034.27 1155.78 1979 1155.78 1979 1162.7C1979 1170.15 1987 1176 1997.18 1176L2384.82 1176C2395 1176 2403 1170.15 2403 1162.7L2403 1155.78 2347.73 1155.78 2347.73 1023.3ZM2152.82 1111.09 2142.64 1118.54 2101.91 1088.74 2142.64 1058.95 2152.82 1066.4 2122.27 1088.74 2152.82 1111.09ZM2180.45 1122.26 2167.36 1118.01 2201.55 1057.88 2214.64 1062.14 2180.45 1122.26ZM2238.64 1119.07 2228.45 1111.62 2259 1089.28 2228.45 1066.93 2238.64 1059.48 2279.36 1089.28 2238.64 1119.07Z" fill="#4E95D9" fill-rule="evenodd"/><text fill="#4E95D9" font-family="Aptos Display,Aptos Display_MSFontService,sans-serif" font-weight="700" font-size="73" transform="matrix(1 0 0 1 1963.92 1292)">Release Notes</text></g></svg>