<svg width="495" height="495" xmlns="http://www.w3.org/2000/svg" xmlns:xlink="http://www.w3.org/1999/xlink" xml:space="preserve" overflow="hidden"><defs><clipPath id="clip0"><rect x="3280" y="710" width="495" height="495"/></clipPath></defs><g clip-path="url(#clip0)" transform="translate(-3280 -710)"><path d="M3400.55 957.38C3371.83 966.111 3345.39 977.752 3321.2 992.304 3304.58 1002.78 3294 1018.5 3293.24 1035.38L3280.4 1121.52C3278.13 1134.33 3285.69 1147.14 3299.29 1154.12 3312.89 1161.11 3327.25 1166.34 3342.36 1171L3349.16 1171 3349.16 1148.3C3337.83 1144.81 3326.49 1140.15 3315.91 1134.91 3311.38 1132.58 3309.11 1128.51 3309.87 1124.43L3323.47 1037.12 3323.47 1035.96C3324.23 1025.48 3330.27 1016.17 3340.85 1009.77 3361.25 996.379 3390.73 984.155 3431.53 972.514 3454.2 982.991 3488.96 989.394 3527.5 989.394 3566.04 989.394 3600.8 982.991 3623.47 972.514 3665.03 984.155 3693.75 996.379 3714.15 1009.77 3724.73 1016.17 3730.77 1026.06 3731.53 1035.96L3745.13 1123.85C3745.89 1127.93 3743.62 1132 3739.09 1134.33L3739.09 1134.33C3728.51 1139.57 3717.93 1144.22 3705.84 1147.72L3705.84 1170.42 3712.64 1170.42C3727.75 1166.34 3742.11 1160.52 3755.71 1153.54L3755.71 1153.54C3769.31 1145.97 3776.87 1133.75 3774.6 1120.94L3761.76 1035.38C3761 1018.5 3750.42 1002.78 3733.8 992.304 3709.61 977.752 3683.17 965.529 3654.45 957.38 3654.45 927.695 3655.96 846.205 3655.96 813.026 3655.96 803.713 3654.45 794.4 3651.43 785.087 3641.6 757.147 3616.67 733.865 3583.42 720.477 3580.4 719.313 3575.86 719.313 3573.6 721.059L3566.79 725.134 3559.24 716.985C3556.97 714.074 3553.19 712.328 3549.41 711.746 3541.86 710.582 3535.06 710 3527.5 710 3497.27 710 3467.05 718.731 3444.38 733.865 3415.66 753.655 3399.79 781.595 3400.55 811.28L3400.55 957.38ZM3438.33 862.502 3443.62 814.773 3610.62 814.773 3615.91 862.502C3606.84 900.337 3559.99 925.366 3510.12 918.381 3473.85 913.143 3445.13 891.024 3438.33 862.502ZM3468.56 959.708C3476.87 954.47 3482.16 945.739 3482.16 937.008L3482.16 935.843C3510.88 945.157 3544.12 945.157 3572.84 935.843L3572.84 937.008C3572.84 945.739 3578.13 953.888 3586.44 959.708 3567.55 964.365 3547.15 966.111 3527.5 966.111 3507.85 966.111 3487.45 964.365 3468.56 959.708Z" fill="#4E95D9" fill-rule="evenodd"/><path d="M3690.64 1037.58C3690.64 1029.42 3682.34 1023 3671.77 1023L3671.77 1023 3384.23 1023C3373.66 1023 3365.36 1029.42 3365.36 1037.58L3365.36 1037.58 3365.36 1182.83 3308 1182.83 3308 1190.42C3308 1198.58 3316.3 1205 3326.87 1205L3729.13 1205C3739.7 1205 3748 1198.58 3748 1190.42L3748 1182.83 3690.64 1182.83 3690.64 1037.58ZM3488.38 1133.83 3477.81 1142 3435.55 1109.33 3477.81 1076.67 3488.38 1084.83 3456.68 1109.33 3488.38 1133.83ZM3517.06 1146.08 3503.47 1141.42 3538.94 1075.5 3552.53 1080.17 3517.06 1146.08ZM3577.43 1142.58 3566.87 1134.42 3598.57 1109.92 3566.87 1085.42 3577.43 1077.25 3619.7 1109.92 3577.43 1142.58Z" fill="#4E95D9" fill-rule="evenodd"/></g></svg>