<svg width="681" height="689" xmlns="http://www.w3.org/2000/svg" xmlns:xlink="http://www.w3.org/1999/xlink" xml:space="preserve" overflow="hidden"><g transform="translate(-1695 -642)"><path d="M1908.55 928.697C1879.83 937.333 1853.39 948.848 1829.2 963.242 1812.58 973.606 1802 989.151 1801.24 1005.85L1788.4 1091.06C1786.13 1103.73 1793.69 1116.39 1807.29 1123.3 1820.89 1130.21 1835.25 1135.39 1850.36 1140L1857.16 1140 1857.16 1117.55C1845.83 1114.09 1834.49 1109.48 1823.91 1104.3 1819.38 1102 1817.11 1097.97 1817.87 1093.94L1831.47 1007.58 1831.47 1006.42C1832.23 996.06 1838.27 986.848 1848.85 980.515 1869.25 967.273 1898.72 955.182 1939.53 943.667 1962.2 954.03 1996.96 960.364 2035.5 960.364 2074.04 960.364 2108.8 954.03 2131.47 943.667 2173.03 955.182 2201.75 967.273 2222.15 980.515 2232.73 986.848 2238.77 996.636 2239.53 1006.42L2253.13 1093.36C2253.89 1097.39 2251.62 1101.42 2247.09 1103.73L2247.09 1103.73C2236.51 1108.91 2225.93 1113.52 2213.84 1116.97L2213.84 1139.42 2220.64 1139.42C2235.75 1135.39 2250.11 1129.64 2263.71 1122.73L2263.71 1122.73C2277.31 1115.24 2284.87 1103.15 2282.6 1090.48L2269.76 1005.85C2269 989.151 2258.42 973.606 2241.8 963.242 2217.61 948.848 2191.17 936.758 2162.45 928.697 2162.45 899.333 2163.96 818.727 2163.96 785.909 2163.96 776.697 2162.45 767.485 2159.43 758.273 2149.6 730.636 2124.67 707.606 2091.42 694.364 2088.4 693.212 2083.86 693.212 2081.6 694.939L2074.79 698.97 2067.24 690.909C2064.97 688.03 2061.19 686.303 2057.41 685.727 2049.86 684.576 2043.06 684 2035.5 684 2005.27 684 1975.05 692.636 1952.38 707.606 1923.66 727.182 1907.79 754.818 1908.55 784.182L1908.55 928.697ZM1946.33 834.849 1951.62 787.636 2118.62 787.636 2123.91 834.849C2114.84 872.273 2067.99 897.03 2018.12 890.121 1981.85 884.94 1953.13 863.061 1946.33 834.849ZM1976.56 931C1984.87 925.818 1990.16 917.182 1990.16 908.546L1990.16 907.394C2018.88 916.606 2052.12 916.606 2080.84 907.394L2080.84 908.546C2080.84 917.182 2086.13 925.242 2094.44 931 2075.55 935.606 2055.15 937.333 2035.5 937.333 2015.85 937.333 1995.45 935.606 1976.56 931Z" fill="#4E95D9" fill-rule="evenodd"/><path d="M2198.51 1008.34C2198.51 1000.31 2190.19 994 2179.6 994L2179.6 994 1891.4 994C1880.81 994 1872.49 1000.31 1872.49 1008.34L1872.49 1008.34 1872.49 1151.2 1815 1151.2 1815 1158.66C1815 1166.69 1823.32 1173 1833.91 1173L2237.09 1173C2247.68 1173 2256 1166.69 2256 1158.66L2256 1151.2 2198.51 1151.2 2198.51 1008.34ZM1995.79 1103.01 1985.2 1111.04 1942.84 1078.91 1985.2 1046.78 1995.79 1054.81 1964.02 1078.91 1995.79 1103.01ZM2024.53 1115.05 2010.92 1110.46 2046.47 1045.63 2060.08 1050.22 2024.53 1115.05ZM2085.05 1111.61 2074.46 1103.58 2106.23 1079.48 2074.46 1055.39 2085.05 1047.36 2127.41 1079.48 2085.05 1111.61Z" fill="#4E95D9" fill-rule="evenodd"/><text fill="#4E95D9" font-family="Aptos Display,Aptos Display_MSFontService,sans-serif" font-weight="700" font-size="69" transform="matrix(1 0 0 1 1795.49 1268)">Release Notes</text><rect x="1705.5" y="652.5" width="660" height="653" stroke="#FFFFFF" stroke-width="20.625" stroke-miterlimit="8" fill="none"/></g></svg>