<svg width="681" height="674" xmlns="http://www.w3.org/2000/svg" xmlns:xlink="http://www.w3.org/1999/xlink" xml:space="preserve" overflow="hidden"><g transform="translate(-1695 -553)"><path d="M2024 983.5C2024 999.24 2012.14 1012 1997.5 1012 1982.86 1012 1971 999.24 1971 983.5 1971 967.76 1982.86 955 1997.5 955 2012.14 955 2024 967.76 2024 983.5Z" fill="#4E95D9" fill-rule="evenodd"/><path d="M2049 1077 2049 1048.47C2048.91 1044.02 2046.99 1039.85 2043.75 1037.09 2036.14 1030.77 2027.43 1026.16 2018.14 1023.52 2011.13 1021.2 2003.84 1020.01 1996.5 1020 1989.17 1020.12 1981.89 1021.31 1974.86 1023.52 1965.67 1026.45 1957.01 1031.04 1949.25 1037.09 1946.01 1039.85 1944.09 1044.02 1944 1048.47L1944 1077Z" fill="#4E95D9" fill-rule="evenodd"/><path d="M2139 983.5C2139 999.24 2127.14 1012 2112.5 1012 2097.86 1012 2086 999.24 2086 983.5 2086 967.76 2097.86 955 2112.5 955 2127.14 955 2139 967.76 2139 983.5Z" fill="#4E95D9" fill-rule="evenodd"/><path d="M2166 1077 2166 1048.47C2165.91 1044.02 2163.99 1039.85 2160.75 1037.09 2153.14 1030.77 2144.43 1026.16 2135.14 1023.52 2128.13 1021.2 2120.84 1020.01 2113.5 1020 2106.17 1020.12 2098.89 1021.31 2091.86 1023.52 2082.67 1026.45 2074.01 1031.04 2066.25 1037.09 2063.01 1039.85 2061.09 1044.02 2061 1048.47L2061 1077Z" fill="#4E95D9" fill-rule="evenodd"/><path d="M2256 983.5C2256 999.24 2244.14 1012 2229.5 1012 2214.86 1012 2203 999.24 2203 983.5 2203 967.76 2214.86 955 2229.5 955 2244.14 955 2256 967.76 2256 983.5Z" fill="#4E95D9" fill-rule="evenodd"/><path d="M2283 1077 2283 1048.47C2282.91 1044.02 2280.97 1039.85 2277.7 1037.09 2270.02 1030.77 2261.23 1026.16 2251.85 1023.52 2244.77 1021.2 2237.41 1020.01 2230 1020 2222.6 1020.12 2215.25 1021.31 2208.15 1023.52 2198.88 1026.45 2190.14 1031.04 2182.3 1037.09 2179.03 1039.85 2177.09 1044.02 2177 1048.47L2177 1077Z" fill="#4E95D9" fill-rule="evenodd"/><path d="M1917 720C1917 740.435 1901.55 757 1882.5 757 1863.45 757 1848 740.435 1848 720 1848 699.565 1863.45 683 1882.5 683 1901.55 683 1917 699.565 1917 720Z" fill="#4E95D9" fill-rule="evenodd"/><path d="M2087.47 705.728C2084.04 702.091 2078.53 702.091 2075.1 705.728L1999.77 786.828C1993.75 784.999 1987.28 786.77 1982.8 791.473 1981.58 792.791 1959.83 831.082 1959.83 831.082L1953.3 801.14C1952.44 797.279 1950.65 793.73 1948.11 790.845 1937.37 781.493 1925 774.537 1911.73 770.382 1902.35 768.222 1892.8 766.982 1883.22 766.679 1873.54 766.839 1863.93 768.402 1854.65 771.324 1841.26 775.102 1828.84 782.099 1818.32 791.787 1815.76 794.654 1813.97 798.209 1813.13 802.081 1813.13 802.081 1788 915.696 1788 917.58 1788 927.98 1795.83 936.411 1805.49 936.411 1813.23 936.197 1819.92 930.527 1821.93 922.476L1840.13 841.439 1840.13 1102 1874.59 1102 1874.59 934.339 1892.08 934.339 1892.08 1102 1926.48 1102 1926.48 840.246 1932.89 869.748C1933.34 871.788 1934.6 873.511 1936.33 874.456 1943.04 879.996 1951.21 883.096 1959.66 883.307 1965.16 884.136 1970.61 881.47 1973.65 876.465L2009.22 813.694C2011.49 809.835 2012.34 805.201 2011.61 800.7L2087.41 719.098C2090.84 715.418 2090.87 709.443 2087.47 705.728Z" fill="#4E95D9" fill-rule="evenodd"/><path d="M2206.63 618 1920.37 618C1907.46 618 1897 629.27 1897 643.171L1897 665.824C1905.93 668.443 1914.02 673.67 1920.37 680.927L1920.37 643.171 2206.63 643.171 2206.63 850.829 2007.24 850.829 1992.99 876 2206.63 876C2219.54 876 2230 864.73 2230 850.829L2230 643.171C2230 629.27 2219.54 618 2206.63 618Z" fill="#4E95D9" fill-rule="evenodd"/><rect x="1705.5" y="563.5" width="660" height="645" stroke="#FFFFFF" stroke-width="20.625" stroke-miterlimit="8" fill="none"/><text fill="#4E95D9" font-family="Aptos Display,Aptos Display_MSFontService,sans-serif" font-weight="700" font-size="73" transform="matrix(1 0 0 1 1898.69 1163)">Tutorials</text></g></svg>