<svg width="660" height="660" xmlns="http://www.w3.org/2000/svg" xmlns:xlink="http://www.w3.org/1999/xlink" xml:space="preserve" overflow="hidden"><g transform="translate(-1879 -646)"><g><g><g><path d="M229 342.12C229 354.709 218.795 364.914 206.206 364.914 193.616 364.914 183.411 354.709 183.411 342.12 183.411 329.53 193.616 319.325 206.206 319.325 218.795 319.325 229 329.53 229 342.12Z" fill="#4E95D9" transform="matrix(1.36929 0 0 1 1879 646)"/><path d="M251.042 416.729 251.042 393.935C250.967 390.383 249.31 387.049 246.523 384.847 239.973 379.798 232.478 376.111 224.481 374.002 218.445 372.149 212.168 371.201 205.854 371.19 199.547 371.288 193.281 372.233 187.227 374.002 179.319 376.343 171.866 380.01 165.185 384.847 162.398 387.049 160.741 390.383 160.667 393.935L160.667 416.729Z" fill="#4E95D9" transform="matrix(1.36929 0 0 1 1879 646)"/><path d="M328.714 342.12C328.714 354.709 318.508 364.914 305.919 364.914 293.33 364.914 283.125 354.709 283.125 342.12 283.125 329.53 293.33 319.325 305.919 319.325 318.508 319.325 328.714 329.53 328.714 342.12Z" fill="#4E95D9" transform="matrix(1.36929 0 0 1 1879 646)"/><path d="M351.458 416.729 351.458 393.935C351.384 390.383 349.727 387.049 346.94 384.847 340.389 379.798 332.895 376.111 324.898 374.002 318.862 372.149 312.584 371.201 306.271 371.19 299.964 371.288 293.698 372.233 287.643 374.002 279.736 376.343 272.282 380.01 265.602 384.847 262.814 387.049 261.158 390.383 261.083 393.935L261.083 416.729Z" fill="#4E95D9" transform="matrix(1.36929 0 0 1 1879 646)"/><path d="M429.131 342.12C429.131 354.709 418.925 364.914 406.336 364.914 393.747 364.914 383.541 354.709 383.541 342.12 383.541 329.53 393.747 319.325 406.336 319.325 418.925 319.325 429.131 329.53 429.131 342.12Z" fill="#4E95D9" transform="matrix(1.36929 0 0 1 1879 646)"/><path d="M451.875 416.729 451.875 393.935C451.801 390.383 450.144 387.049 447.356 384.847 440.806 379.798 433.311 376.111 425.315 374.002 419.279 372.149 413.001 371.201 406.687 371.19 400.38 371.288 394.115 372.233 388.06 374.002 380.152 376.343 372.699 380.01 366.019 384.847 363.231 387.049 361.574 390.383 361.5 393.935L361.5 416.729Z" fill="#4E95D9" transform="matrix(1.36929 0 0 1 1879 646)"/><path d="M137.671 131.345C137.671 147.816 124.319 161.169 107.847 161.169 91.3763 161.169 78.0237 147.816 78.0237 131.345 78.0237 114.874 91.3763 101.521 107.847 101.521 124.319 101.521 137.671 114.874 137.671 131.345Z" fill="#4E95D9" transform="matrix(1.36929 0 0 1 1879 646)"/><path d="M283.727 119.847C280.776 116.938 276.035 116.938 273.083 119.847L208.214 184.716C203.03 183.253 197.459 184.67 193.603 188.432 192.549 189.486 173.821 220.113 173.821 220.113L168.198 196.164C167.453 193.076 165.913 190.237 163.729 187.93 154.475 180.449 143.825 174.885 132.399 171.562 124.322 169.834 116.104 168.843 107.847 168.6 99.5174 168.728 91.2421 169.978 83.2454 172.315 71.7161 175.338 61.0217 180.934 51.9656 188.683 49.7625 190.976 48.2188 193.82 47.4971 196.917 47.4971 196.917 25.8573 287.794 25.8573 289.3 25.8573 297.619 32.601 304.363 40.9198 304.363 47.5864 304.192 53.3468 299.657 55.0785 293.217L70.7435 228.398 70.7435 436.812 100.417 436.812 100.417 302.706 115.479 302.706 115.479 436.812 145.102 436.812 145.102 227.444 150.625 251.042C151.008 252.673 152.092 254.051 153.587 254.807 159.361 259.239 166.394 261.718 173.671 261.887 178.408 262.55 183.103 260.418 185.721 256.414L216.348 206.206C218.305 203.119 219.04 199.412 218.406 195.812L283.677 130.542C286.633 127.598 286.656 122.819 283.727 119.847Z" fill="#4E95D9" transform="matrix(1.36929 0 0 1 1879 646)"/><path d="M386.604 50.2083 140.583 50.2083C129.492 50.2083 120.5 59.2001 120.5 70.2917L120.5 88.3667C128.177 90.4563 135.127 94.6266 140.583 100.417L140.583 70.2917 386.604 70.2917 386.604 235.979 215.243 235.979 202.992 256.062 386.604 256.062C397.696 256.062 406.687 247.071 406.687 235.979L406.687 70.2917C406.687 59.2001 397.696 50.2083 386.604 50.2083Z" fill="#4E95D9" transform="matrix(1.36929 0 0 1 1879 646)"/></g></g></g><text fill="#4E95D9" font-family="Aptos Display,Aptos Display_MSFontService,sans-serif" font-weight="700" font-size="83" transform="matrix(1 0 0 1 2058.22 1198)">Tutorials</text></g></svg>