<svg width="660" height="660" xmlns="http://www.w3.org/2000/svg" xmlns:xlink="http://www.w3.org/1999/xlink" xml:space="preserve" overflow="hidden"><defs><clipPath id="clip0"><rect x="1915" y="697" width="660" height="660"/></clipPath></defs><g clip-path="url(#clip0)" transform="translate(-1915 -697)"><path d="M2229 1013C2229 1026.81 2213.33 1038 2194 1038 2174.67 1038 2159 1026.81 2159 1013 2159 999.193 2174.67 988 2194 988 2213.33 988 2229 999.193 2229 1013Z" fill="#4E95D9" fill-rule="evenodd"/><path d="M2264 1094 2264 1069.47C2263.88 1065.65 2261.32 1062.06 2257 1059.69 2246.85 1054.26 2235.24 1050.29 2222.86 1048.03 2213.51 1046.03 2203.78 1045.01 2194 1045 2184.23 1045.1 2174.52 1046.12 2165.14 1048.03 2152.89 1050.54 2141.35 1054.49 2131 1059.69 2126.68 1062.06 2124.11 1065.65 2124 1069.47L2124 1094Z" fill="#4E95D9" fill-rule="evenodd"/><path d="M2384 1013C2384 1026.81 2368.11 1038 2348.5 1038 2328.89 1038 2313 1026.81 2313 1013 2313 999.193 2328.89 988 2348.5 988 2368.11 988 2384 999.193 2384 1013Z" fill="#4E95D9" fill-rule="evenodd"/><path d="M2419 1094 2419 1069.47C2418.88 1065.65 2416.32 1062.06 2412 1059.69 2401.85 1054.26 2390.24 1050.29 2377.86 1048.03 2368.51 1046.03 2358.78 1045.01 2349 1045 2339.23 1045.1 2329.52 1046.12 2320.14 1048.03 2307.89 1050.54 2296.35 1054.49 2286 1059.69 2281.68 1062.06 2279.11 1065.65 2279 1069.47L2279 1094Z" fill="#4E95D9" fill-rule="evenodd"/><path d="M2540 1013C2540 1026.81 2524.11 1038 2504.5 1038 2484.89 1038 2469 1026.81 2469 1013 2469 999.193 2484.89 988 2504.5 988 2524.11 988 2540 999.193 2540 1013Z" fill="#4E95D9" fill-rule="evenodd"/><path d="M2575 1094 2575 1069.47C2574.89 1065.65 2572.32 1062.06 2568 1059.69 2557.85 1054.26 2546.24 1050.29 2533.86 1048.03 2524.51 1046.03 2514.78 1045.01 2505 1045 2495.23 1045.1 2485.52 1046.12 2476.14 1048.03 2463.89 1050.54 2452.35 1054.49 2442 1059.69 2437.68 1062.06 2435.12 1065.65 2435 1069.47L2435 1094Z" fill="#4E95D9" fill-rule="evenodd"/><path d="M2088 784.5C2088 802.45 2067.41 817 2042 817 2016.59 817 1996 802.45 1996 784.5 1996 766.551 2016.59 752 2042 752 2067.41 752 2088 766.551 2088 784.5Z" fill="#4E95D9" fill-rule="evenodd"/><path d="M2314.62 772.366C2310.04 769.211 2302.7 769.211 2298.12 772.366L2197.6 842.693C2189.56 841.107 2180.93 842.642 2174.95 846.721 2173.32 847.864 2144.3 881.068 2144.3 881.068L2135.58 855.104C2134.43 851.756 2132.04 848.678 2128.66 846.177 2114.32 838.067 2097.81 832.034 2080.11 828.432 2067.59 826.559 2054.85 825.483 2042.06 825.22 2029.15 825.359 2016.33 826.714 2003.93 829.248 1986.07 832.525 1969.49 838.592 1955.46 846.993 1952.05 849.479 1949.65 852.563 1948.54 855.92 1948.54 855.92 1915 954.444 1915 956.077 1915 965.096 1925.45 972.407 1938.34 972.407 1948.67 972.221 1957.6 967.304 1960.28 960.322L1984.56 890.05 1984.56 1116 2030.54 1116 2030.54 970.61 2053.89 970.61 2053.89 1116 2099.79 1116 2099.79 889.015 2108.35 914.599C2108.95 916.367 2110.62 917.862 2112.94 918.681 2121.89 923.485 2132.79 926.173 2144.06 926.356 2151.41 927.075 2158.68 924.764 2162.74 920.423L2210.2 865.99C2213.23 862.644 2214.37 858.626 2213.39 854.723L2314.54 783.96C2319.12 780.769 2319.16 775.587 2314.62 772.366Z" fill="#4E95D9" fill-rule="evenodd"/><path d="M2473.84 697 2092.16 697C2074.95 697 2061 706.741 2061 718.756L2061 738.337C2072.91 740.6 2083.69 745.118 2092.16 751.39L2092.16 718.756 2473.84 718.756 2473.84 898.244 2207.99 898.244 2188.98 920 2473.84 920C2491.05 920 2505 910.259 2505 898.244L2505 718.756C2505 706.741 2491.05 697 2473.84 697Z" fill="#4E95D9" fill-rule="evenodd"/><text fill="#4E95D9" font-family="Aptos Display,Aptos Display_MSFontService,sans-serif" font-weight="700" font-size="73" transform="matrix(1 0 0 1 2091.82 1235)">Tutorials</text></g></svg>