<svg width="495" height="495" xmlns="http://www.w3.org/2000/svg" xmlns:xlink="http://www.w3.org/1999/xlink" xml:space="preserve" overflow="hidden"><defs><clipPath id="clip0"><rect x="3165" y="502" width="495" height="495"/></clipPath></defs><g clip-path="url(#clip0)" transform="translate(-3165 -502)"><path d="M3401 876C3401 892.017 3389.14 905 3374.5 905 3359.86 905 3348 892.017 3348 876 3348 859.984 3359.86 847 3374.5 847 3389.14 847 3401 859.984 3401 876Z" fill="#4E95D9" fill-rule="evenodd"/><path d="M3427 971 3427 941.968C3426.91 937.444 3424.99 933.199 3421.75 930.394 3414.14 923.963 3405.43 919.267 3396.14 916.581 3389.13 914.222 3381.84 913.014 3374.5 913 3367.17 913.124 3359.89 914.328 3352.86 916.581 3343.67 919.563 3335.01 924.233 3327.25 930.394 3324.01 933.199 3322.09 937.444 3322 941.968L3322 971Z" fill="#4E95D9" fill-rule="evenodd"/><path d="M3517 876C3517 892.017 3505.14 905 3490.5 905 3475.86 905 3464 892.017 3464 876 3464 859.984 3475.86 847 3490.5 847 3505.14 847 3517 859.984 3517 876Z" fill="#4E95D9" fill-rule="evenodd"/><path d="M3543 971 3543 941.968C3542.91 937.444 3540.99 933.199 3537.75 930.394 3530.14 923.963 3521.43 919.267 3512.14 916.581 3505.13 914.222 3497.84 913.014 3490.5 913 3483.17 913.124 3475.89 914.328 3468.86 916.581 3459.67 919.563 3451.01 924.233 3443.25 930.394 3440.01 933.199 3438.09 937.444 3438 941.968L3438 971Z" fill="#4E95D9" fill-rule="evenodd"/><path d="M3634 876C3634 892.017 3622.14 905 3607.5 905 3592.86 905 3581 892.017 3581 876 3581 859.984 3592.86 847 3607.5 847 3622.14 847 3634 859.984 3634 876Z" fill="#4E95D9" fill-rule="evenodd"/><path d="M3660 971 3660 941.968C3659.91 937.444 3657.99 933.199 3654.75 930.394 3647.14 923.963 3638.43 919.267 3629.14 916.581 3622.13 914.222 3614.84 913.014 3607.5 913 3600.17 913.124 3592.89 914.328 3585.86 916.581 3576.67 919.563 3568.01 924.233 3560.25 930.394 3557.01 933.199 3555.09 937.444 3555 941.968L3555 971Z" fill="#4E95D9" fill-rule="evenodd"/><path d="M3295 606C3295 626.987 3279.55 644 3260.5 644 3241.45 644 3226 626.987 3226 606 3226 585.013 3241.45 568 3260.5 568 3279.55 568 3295 585.013 3295 606Z" fill="#4E95D9" fill-rule="evenodd"/><path d="M3464.47 591.79C3461.04 588.07 3455.53 588.07 3452.11 591.79L3376.77 674.719C3370.75 672.848 3364.28 674.659 3359.8 679.469 3358.58 680.817 3336.83 719.97 3336.83 719.97L3330.3 689.353C3329.44 685.406 3327.65 681.776 3325.11 678.827 3314.37 669.264 3302 662.15 3288.73 657.902 3279.35 655.693 3269.8 654.425 3260.22 654.115 3250.54 654.279 3240.93 655.877 3231.65 658.865 3218.26 662.729 3205.84 669.883 3195.32 679.79 3192.76 682.721 3190.97 686.357 3190.13 690.316 3190.13 690.316 3165 806.494 3165 808.419 3165 819.055 3172.83 827.676 3182.49 827.676 3190.23 827.457 3196.92 821.659 3198.93 813.426L3217.13 730.561 3217.13 997 3251.59 997 3251.59 825.557 3269.08 825.557 3269.08 997 3303.48 997 3303.48 729.342 3309.89 759.509C3310.34 761.595 3311.6 763.357 3313.33 764.323 3320.04 769.988 3328.21 773.158 3336.66 773.374 3342.16 774.221 3347.61 771.495 3350.65 766.377L3386.22 702.191C3388.49 698.244 3389.34 693.506 3388.61 688.904L3464.41 605.461C3467.84 601.698 3467.87 595.588 3464.47 591.79Z" fill="#4E95D9" fill-rule="evenodd"/><path d="M3584.63 502 3298.37 502C3285.46 502 3275 513.531 3275 527.756L3275 550.936C3283.93 553.616 3292.02 558.965 3298.37 566.39L3298.37 527.756 3584.63 527.756 3584.63 740.244 3385.24 740.244 3370.99 766 3584.63 766C3597.54 766 3608 754.468 3608 740.244L3608 527.756C3608 513.531 3597.54 502 3584.63 502Z" fill="#4E95D9" fill-rule="evenodd"/></g></svg>