<svg width="495" height="495" xmlns="http://www.w3.org/2000/svg" xmlns:xlink="http://www.w3.org/1999/xlink" xml:space="preserve" overflow="hidden"><defs><clipPath id="clip0"><rect x="3310" y="636" width="495" height="495"/></clipPath></defs><g clip-path="url(#clip0)" transform="translate(-3310 -636)"><path d="M3310 636 3358 636 3358 1131 3310 1131Z" fill="#4E95D9" fill-rule="evenodd"/><path d="M3772.53 636 3391 636 3391 1131 3772.53 1131C3790.39 1131 3805 1118.96 3805 1104.24L3805 662.757C3805 648.04 3790.39 636 3772.53 636ZM3529.81 823.966C3529.81 795.872 3557.41 773.128 3591.51 773.128 3625.6 773.128 3653.2 795.872 3653.2 823.966 3653.2 852.061 3625.6 874.804 3591.51 874.804 3557.41 874.804 3529.81 852.73 3529.81 823.966ZM3715.71 990.527 3467.31 990.527 3467.31 939.689C3467.31 931.662 3472.18 924.304 3479.48 918.953 3498.15 908.25 3518.45 899.554 3540.36 894.872 3557.41 890.858 3574.46 888.851 3591.51 888.183 3608.55 888.183 3626.41 890.189 3642.65 894.872 3664.56 899.554 3684.86 907.581 3703.53 918.953 3710.84 923.635 3715.71 931.662 3715.71 939.689L3715.71 990.527Z" fill="#4E95D9" fill-rule="evenodd"/></g></svg>