<svg width="660" height="660" xmlns="http://www.w3.org/2000/svg" xmlns:xlink="http://www.w3.org/1999/xlink" xml:space="preserve" overflow="hidden"><g transform="translate(-1805 -806)"><g><g><g><path d="M83.0521 53.7396 112.365 53.7396 112.365 415.26 83.0521 415.26Z" fill="#4E95D9" transform="matrix(1.33262 0 0 1 1805 806)"/><path d="M361.521 53.7396 131.906 53.7396 131.906 415.26 361.521 415.26C372.269 415.26 381.062 406.467 381.062 395.719L381.062 73.2812C381.062 62.5333 372.269 53.7396 361.521 53.7396ZM215.447 191.02C215.447 170.501 232.057 153.891 252.576 153.891 273.095 153.891 289.705 170.501 289.705 191.02 289.705 211.538 273.095 228.149 252.576 228.149 232.057 228.149 215.447 212.027 215.447 191.02ZM327.323 312.667 177.829 312.667 177.829 275.537C177.829 269.675 180.76 264.301 185.157 260.393 196.394 252.576 208.607 246.225 221.798 242.805 232.057 239.874 242.317 238.408 252.576 237.92 262.835 237.92 273.583 239.385 283.354 242.805 296.545 246.225 308.758 252.087 319.995 260.393 324.392 263.812 327.323 269.675 327.323 275.537L327.323 312.667Z" fill="#4E95D9" transform="matrix(1.33262 0 0 1 1805 806)"/></g></g></g><text fill="#4E95D9" font-family="Aptos Display,Aptos Display_MSFontService,sans-serif" font-weight="700" font-size="83" transform="matrix(1 0 0 1 1873.81 1362)">User’s Guide</text></g></svg>