<svg width="660" height="660" xmlns="http://www.w3.org/2000/svg" xmlns:xlink="http://www.w3.org/1999/xlink" xml:space="preserve" overflow="hidden"><defs><clipPath id="clip0"><rect x="1839" y="852" width="660" height="660"/></clipPath></defs><g clip-path="url(#clip0)" transform="translate(-1839 -852)"><path d="M1839 852 1904 852 1904 1269 1839 1269Z" fill="#4E95D9" fill-rule="evenodd"/><path d="M2455.78 852 1948 852 1948 1269 2455.78 1269C2479.55 1269 2499 1258.86 2499 1246.46L2499 874.541C2499 862.143 2479.55 852 2455.78 852ZM2132.75 1010.35C2132.75 986.68 2169.48 967.52 2214.86 967.52 2260.23 967.52 2296.97 986.68 2296.97 1010.35 2296.97 1034.02 2260.23 1053.17 2214.86 1053.17 2169.48 1053.17 2132.75 1034.58 2132.75 1010.35ZM2380.16 1150.66 2049.56 1150.66 2049.56 1107.84C2049.56 1101.07 2056.04 1094.87 2065.76 1090.37 2090.61 1081.35 2117.62 1074.02 2146.79 1070.08 2169.48 1066.7 2192.17 1065.01 2214.86 1064.44 2237.55 1064.44 2261.31 1066.14 2282.92 1070.08 2312.09 1074.02 2339.1 1080.79 2363.95 1090.37 2373.67 1094.31 2380.16 1101.07 2380.16 1107.84L2380.16 1150.66Z" fill="#4E95D9" fill-rule="evenodd"/><text fill="#4E95D9" font-family="Aptos Display,Aptos Display_MSFontService,sans-serif" font-weight="700" font-size="73" transform="matrix(1 0 0 1 1973.96 1409)">User’s Guide</text></g></svg>